<svg id="visual" viewBox="0 0 1920 1080" width="1920" height="1080" xmlns="http://www.w3.org/2000/svg" xmlns:xlink="http://www.w3.org/1999/xlink" version="1.1"><rect x="0" y="0" width="1920" height="1080" fill="#001220"></rect><defs><linearGradient id="grad1_0" x1="43.8%" y1="0%" x2="100%" y2="100%"><stop offset="14.444444444444446%" stop-color="#001220" stop-opacity="1"></stop><stop offset="85.55555555555554%" stop-color="#001220" stop-opacity="1"></stop></linearGradient></defs><defs><linearGradient id="grad2_0" x1="0%" y1="0%" x2="56.3%" y2="100%"><stop offset="14.444444444444446%" stop-color="#001220" stop-opacity="1"></stop><stop offset="85.55555555555554%" stop-color="#001220" stop-opacity="1"></stop></linearGradient></defs><g transform="translate(1920, 0)"><path d="M0 756C-82.5 712.8 -164.9 669.5 -266 642.1C-367 614.7 -486.6 603.1 -534.6 534.6C-582.6 466 -558.9 340.5 -583.9 241.9C-608.9 143.3 -682.4 71.6 -756 0L0 0Z" fill="#288ed7"></path></g><g transform="translate(0, 1080)"><path d="M0 -756C108.6 -755.9 217.2 -755.7 289.3 -698.5C361.4 -641.2 397.1 -526.8 447.6 -447.6C498.1 -368.4 563.3 -324.4 617.2 -255.6C671 -186.9 713.5 -93.4 756 0L0 0Z" fill="#288ed7"></path></g></svg>